<?xml version="1.0" encoding="UTF-8" standalone="no"?>
<!DOCTYPE svg PUBLIC "-//W3C//DTD SVG 1.1//EN" "http://www.w3.org/Graphics/SVG/1.1/DTD/svg11.dtd">
<svg width="100%" height="100%" viewBox="0 0 1280 720" version="1.1" xmlns="http://www.w3.org/2000/svg" xmlns:xlink="http://www.w3.org/1999/xlink" xml:space="preserve" xmlns:serif="http://www.serif.com/" style="fill-rule:evenodd;clip-rule:evenodd;stroke-linejoin:round;stroke-miterlimit:2;">
    <g id="audio_data" transform="matrix(1.18399,0,0,0.887994,-84.2273,98.6336)">
        <g transform="matrix(0.5324,0,0,0.5324,87.2573,128.187)">
            <path d="M257.074,117.352C257.074,102.837 248.235,91.052 237.349,91.052L56.605,91.052C45.719,91.052 36.88,102.837 36.88,117.352L36.88,169.952C36.88,184.467 45.719,196.252 56.605,196.252L237.349,196.252C248.235,196.252 257.074,184.467 257.074,169.952L257.074,117.352Z" style="fill:rgb(189,207,236);"/>
        </g>
        <g transform="matrix(1.62345,0,0,1.62345,-83.9921,-33.4837)">
            <text x="124.305px" y="146.554px" style="font-family:'ArialMT', 'Arial', sans-serif;font-size:12px;">Audio Data</text>
        </g>
        <g transform="matrix(1,0,0,1,-9.27188,-4.32164)">
            <text x="164.448px" y="226.102px" style="font-family:'ArialMT', 'Arial', sans-serif;font-size:12px;">128</text>
        </g>
    </g>
    <g id="video_data" transform="matrix(1.18399,0,0,0.887994,-84.2273,175.452)">
        <g transform="matrix(0.5324,0,0,0.5324,87.2573,128.187)">
            <path d="M257.074,117.352C257.074,102.837 248.235,91.052 237.349,91.052L56.605,91.052C45.719,91.052 36.88,102.837 36.88,117.352L36.88,169.952C36.88,184.467 45.719,196.252 56.605,196.252L237.349,196.252C248.235,196.252 257.074,184.467 257.074,169.952L257.074,117.352Z" style="fill:rgb(189,207,236);"/>
        </g>
        <g transform="matrix(1.62345,0,0,1.62345,-84.1063,-33.4837)">
            <text x="124.305px" y="146.554px" style="font-family:'ArialMT', 'Arial', sans-serif;font-size:12px;">V<tspan x="132.092px 134.758px " y="146.554px 146.554px ">id</tspan>eo Data</text>
        </g>
        <g transform="matrix(1,0,0,1,-11.6685,-3.98466)">
            <text x="164.448px" y="226.102px" style="font-family:'ArialMT', 'Arial', sans-serif;font-size:12px;">1024</text>
        </g>
    </g>
    <g id="arrow_1" transform="matrix(1.15272,0,0,0.864542,-77.7884,99.1383)">
        <path d="M224.617,212.61L224.617,206.66L285.242,206.66L285.242,201.135L291.617,209.635L285.242,218.135L285.242,212.61L224.617,212.61Z" style="fill:rgb(0,28,73);"/>
    </g>
    <g id="arrow_3" transform="matrix(1.18399,0,0,0.887994,159.684,94.2219)">
        <path d="M224.617,212.61L224.617,206.66L285.242,206.66L285.242,201.135L291.617,209.635L285.242,218.135L285.242,212.61L224.617,212.61Z" style="fill:rgb(0,28,73);"/>
    </g>
    <g id="arrow_2" transform="matrix(1.15272,0,0,0.864542,-77.7884,175.957)">
        <path d="M224.617,212.61L224.617,206.66L285.242,206.66L285.242,201.135L291.617,209.635L285.242,218.135L285.242,212.61L224.617,212.61Z" style="fill:rgb(0,28,73);"/>
    </g>
    <g id="netvlad_1" transform="matrix(1.18399,0,0,0.887994,-84.2273,98.6336)">
        <g transform="matrix(0.805966,0,0,0.797224,126.78,63.8271)">
            <path d="M376.995,154.069C376.995,141.599 369.484,131.476 360.233,131.476L218.474,131.476C209.224,131.476 201.713,141.599 201.713,154.069L201.713,199.256C201.713,211.726 209.224,221.85 218.474,221.85L360.233,221.85C369.484,221.85 376.995,211.726 376.995,199.256L376.995,154.069Z" style="fill:rgb(151,243,132);"/>
        </g>
        <g transform="matrix(1.83122,0,0,1.83122,-284.291,-161.235)">
            <text x="326.682px" y="204.037px" style="font-family:'ArialMT', 'Arial', sans-serif;font-size:12px;">NetVLAD</text>
        </g>
    </g>
    <g id="netvlad_11" serif:id="netvlad_1" transform="matrix(1.18399,0,0,0.887994,-84.2273,175.452)">
        <g transform="matrix(0.805966,0,0,0.797224,126.78,63.8271)">
            <path d="M376.995,154.069C376.995,141.599 369.484,131.476 360.233,131.476L218.474,131.476C209.224,131.476 201.713,141.599 201.713,154.069L201.713,199.256C201.713,211.726 209.224,221.85 218.474,221.85L360.233,221.85C369.484,221.85 376.995,211.726 376.995,199.256L376.995,154.069Z" style="fill:rgb(151,243,132);"/>
        </g>
        <g transform="matrix(1,0,0,1,-12.7471,8.37461)">
            <text x="326.682px" y="204.037px" style="font-family:'ArialMT', 'Arial', sans-serif;font-size:22px;">NetVLAD</text>
        </g>
    </g>
    <g id="arrow_4" transform="matrix(1.18399,0,0,0.887994,159.684,171.04)">
        <path d="M224.617,212.61L224.617,206.66L285.242,206.66L285.242,201.135L291.617,209.635L285.242,218.135L285.242,212.61L224.617,212.61Z" style="fill:rgb(0,28,73);"/>
    </g>
    <g id="FC_layer" transform="matrix(1.18399,0,0,0.892597,-84.2273,97.8574)">
        <path d="M592.441,200.085C592.441,182.731 581.82,168.642 568.737,168.642L521.329,168.642C508.246,168.642 497.625,182.731 497.625,200.085L497.625,294.939C497.625,312.292 508.246,326.381 521.329,326.381L568.737,326.381C581.82,326.381 592.441,312.292 592.441,294.939L592.441,200.085Z" style="fill:rgb(151,243,132);"/>
        <g transform="matrix(1,0,0,1,-15.686,-8.48467)">
            <text x="518.691px" y="247.006px" style="font-family:'ArialMT', 'Arial', sans-serif;font-size:11.617px;">Fully Connected</text>
            <text x="546.133px" y="259.003px" style="font-family:'ArialMT', 'Arial', sans-serif;font-size:11.617px;">Layer</text>
            <text x="525.146px" y="270.999px" style="font-family:'ArialMT', 'Arial', sans-serif;font-size:11.617px;">(concatenate)</text>
        </g>
    </g>
    <g id="arrow_31" serif:id="arrow_3" transform="matrix(1.20121,0,0,0.887994,347.405,132.631)">
        <path d="M224.617,212.61L224.617,206.66L285.334,206.66L285.334,201.135L291.617,209.635L285.334,218.135L285.334,212.61L224.617,212.61Z" style="fill:rgb(0,28,73);"/>
    </g>
    <g id="arrow_32" serif:id="arrow_3" transform="matrix(1.20121,0,0,0.887994,540.867,132.631)">
        <path d="M224.617,212.61L224.617,206.66L285.334,206.66L285.334,201.135L291.617,209.635L285.334,218.135L285.334,212.61L224.617,212.61Z" style="fill:rgb(0,28,73);"/>
    </g>
    <g transform="matrix(0.890183,0,0,0.900358,353.712,50.9142)">
        <g transform="matrix(1.05088,0,0,0.788157,-13.2688,87.3041)">
            <path d="M728.164,236.081C728.164,219.174 717.752,205.448 704.927,205.448L610.386,205.448C597.561,205.448 587.148,219.174 587.148,236.081L587.148,297.347C587.148,314.254 597.561,327.98 610.386,327.98L704.927,327.98C717.752,327.98 728.164,314.254 728.164,297.347L728.164,236.081Z" style="fill:rgb(255,118,58);"/>
        </g>
        <g transform="matrix(1.19766,0,0,0.898247,-46.5682,68.5306)">
            <text x="557.183px" y="258.022px" style="font-family:'ArialMT', 'Arial', sans-serif;font-size:11.7px;">MIxture of Experts</text>
        </g>
    </g>
    <g transform="matrix(1.12667,0,0,1.12667,17.4699,-16.4178)">
        <g id="FC_layer1" serif:id="FC_layer" transform="matrix(1.05761,0,0,0.528637,77.4578,166.673)">
            <path d="M592.441,208.077C592.441,186.313 583.609,168.642 572.73,168.642L517.336,168.642C506.457,168.642 497.625,186.313 497.625,208.077L497.625,286.946C497.625,308.711 506.457,326.381 517.336,326.381L572.73,326.381C583.609,326.381 592.441,308.711 592.441,286.946L592.441,208.077Z" style="fill:rgb(151,243,132);"/>
        </g>
        <g transform="matrix(1,0,0,1,21.1031,-10.9819)">
            <text x="594.411px" y="305.216px" style="font-family:'ArialMT', 'Arial', sans-serif;font-size:22px;">Context</text>
            <text x="599.911px" y="323.167px" style="font-family:'ArialMT', 'Arial', sans-serif;font-size:22px;">Gating</text>
        </g>
    </g>
    <g transform="matrix(0.935472,0,0,0.709624,556.491,129.519)">
        <path d="M728.164,236.081C728.164,219.174 717.752,205.448 704.927,205.448L610.386,205.448C597.561,205.448 587.148,219.174 587.148,236.081L587.148,297.347C587.148,314.254 597.561,327.98 610.386,327.98L704.927,327.98C717.752,327.98 728.164,314.254 728.164,297.347L728.164,236.081Z" style="fill:rgb(255,118,58);"/>
    </g>
    <g transform="matrix(1.12667,0,0,1.12667,458.766,-28.7907)">
        <text x="594.411px" y="305.216px" style="font-family:'ArialMT', 'Arial', sans-serif;font-size:22px;">Context</text>
        <text x="599.911px" y="323.167px" style="font-family:'ArialMT', 'Arial', sans-serif;font-size:22px;">Gating</text>
    </g>
    <g id="arrow_33" serif:id="arrow_3" transform="matrix(1.20121,0,0,0.887994,755.458,132.631)">
        <path d="M224.617,212.61L224.617,206.66L285.334,206.66L285.334,201.135L291.617,209.635L285.334,218.135L285.334,212.61L224.617,212.61Z" style="fill:rgb(0,28,73);"/>
    </g>
</svg>
